<svg width="140" height="28" viewBox="0 0 140 28" fill="none" xmlns="http://www.w3.org/2000/svg">
<path d="M12.3525 0L12.5325 0.835333L0.546164 5.29356L0 5.00889L12.3525 0Z" fill="url(#paint0_linear_56_3032)"/>
<path d="M13.488 1.04379L13.6156 1.87912L3.33699 5.0089L13.488 1.04379Z" fill="url(#paint1_linear_56_3032)"/>
<path d="M14.9326 1.8791V2.86999L5.20471 5.53154L14.9326 1.8791Z" fill="url(#paint2_linear_56_3032)"/>
<path d="M0 5.00889L0 24.6944C0 26.5207 1.4631 28 3.26929 28C3.29237 28 3.31545 27.9969 3.33853 27.9969V6.74955L0 5.00889Z" fill="url(#paint3_linear_56_3032)"/>
<path d="M12.7587 14.8649C12.9279 14.7389 13.6126 14.2317 13.7741 14.0902C14.6234 13.3497 15.3003 12.4849 15.8034 11.494C16.3065 10.5046 16.5572 9.50908 16.5572 8.50886C16.5572 7.45886 16.3049 6.58619 15.8034 5.89086C15.3003 5.19708 14.6203 4.72886 13.7618 4.48775C12.9049 4.24819 11.9556 4.2793 10.9171 4.58419L6.53858 5.86752L4.19854 6.5753V27.8631C5.55087 27.4586 6.53858 26.194 6.53858 24.696V8.79352L10.374 7.66886C10.951 7.4993 11.4633 7.46664 11.9079 7.5693C12.3525 7.67197 12.7002 7.88819 12.9464 8.21486C13.1941 8.54308 13.3172 8.98175 13.3172 9.53241C13.3172 10.0162 13.2187 10.4875 13.0202 10.9449C12.8218 11.4022 12.5464 11.7973 12.191 12.1255C11.8356 12.4553 11.4202 12.6886 10.9417 12.8286L8.294 13.6049L13.6172 23.198C14.211 23.9835 15.2464 24.2775 16.1572 23.9182L17.4942 23.3893L12.7587 14.8617V14.8649Z" fill="url(#paint4_linear_56_3032)"/>
<path d="M28.6993 6.94862C32.6194 6.94862 34.5794 9.23062 34.5794 12.0415C34.5794 14.07 33.4856 15.9817 31.024 16.7191L34.7164 23.1264H30.3178L26.9901 17.0193H26.0562V23.1264H22.1592V6.94862H28.7009H28.6993ZM28.4716 10.2215H26.0562V14.2317H28.4716C29.9301 14.2317 30.6148 13.4711 30.6148 12.2033C30.6148 11.0055 29.9317 10.2215 28.4716 10.2215Z" fill="#030712"/>
<path d="M41.8519 10.0831C43.7443 10.0831 45.0889 10.9589 45.772 12.0882V10.2682H49.669V23.128H45.772V21.308C45.0659 22.4373 43.7212 23.3131 41.8289 23.3131C38.7288 23.3131 36.2441 20.7325 36.2441 16.6756C36.2441 12.6187 38.7288 10.0847 41.8504 10.0847L41.8519 10.0831ZM42.992 13.5162C41.5335 13.5162 40.2119 14.6222 40.2119 16.674C40.2119 18.7258 41.5335 19.8769 42.992 19.8769C44.4505 19.8769 45.772 18.7476 45.772 16.6974C45.772 14.6471 44.4735 13.5162 42.992 13.5162Z" fill="#030712"/>
<path d="M61.5447 13.4012L56.1431 19.877H61.6585V23.1265H51.7891V19.9921L57.0769 13.5163H51.8353V10.2668H61.5447V13.4012Z" fill="#030712"/>
<path d="M63.4386 6.81009C63.4386 5.61231 64.3724 4.66653 65.7632 4.66653C67.154 4.66653 68.0648 5.61076 68.0648 6.81009C68.0648 8.00942 67.1309 8.93031 65.7632 8.93031C64.3955 8.93031 63.4386 7.98609 63.4386 6.81009ZM63.8032 10.2665H67.7002V23.1263H63.8032V10.2665Z" fill="#030712"/>
<path d="M79.3019 16.1436C79.3019 14.392 78.345 13.4245 76.8634 13.4245C75.3818 13.4245 74.4249 14.392 74.4249 16.1436V23.1265H70.5279V10.2667H74.4249V11.9716C75.2003 10.8889 76.568 10.1283 78.2773 10.1283C81.2173 10.1283 83.1774 12.1567 83.1774 15.6132V23.1265H79.3019V16.1436Z" fill="#030712"/>
<path d="M91.4053 23.2865C88.2376 23.2865 85.799 21.535 85.799 18.7008H88.5791C88.6929 20.0136 89.6053 21.0745 91.4053 21.0745C93.2053 21.0745 94.2546 20.0836 94.2546 18.7241C94.2546 14.8523 85.8437 17.3645 85.8437 11.4643C85.8437 8.65343 88.0545 6.90187 91.2915 6.90187C94.3223 6.90187 96.4654 8.51498 96.6931 11.2574H93.8207C93.73 10.1748 92.7946 9.18387 91.1545 9.1372C89.6499 9.09054 88.4883 9.82787 88.4883 11.3725C88.4883 14.9908 96.8762 12.7321 96.8762 18.5856C96.8762 20.9828 94.9392 23.2865 91.4053 23.2865Z" fill="#030712"/>
<path d="M99.953 6.07292H102.552V15.9818L107.11 10.4285H110.712L104.922 16.7891L110.712 23.1265H107.201L102.552 17.6649V23.1265H99.953V6.07292Z" fill="#030712"/>
<path d="M112.581 10.4285H115.18V23.1265H112.581V10.4285Z" fill="#030712"/>
<path d="M112.24 7.06383C112.24 6.11961 112.969 5.38072 113.903 5.38072C114.837 5.38072 115.544 6.11806 115.544 7.06383C115.544 8.00961 114.815 8.74539 113.903 8.74539C112.99 8.74539 112.24 8.00806 112.24 7.06383Z" fill="#8500FA"/>
<path d="M118.6 6.07292H121.198V23.1265H118.6V6.07292Z" fill="#030712"/>
<path d="M124.617 6.07292H127.215V23.1265H124.617V6.07292Z" fill="#030712"/>
<path d="M135.192 23.3334C132.183 23.3334 130.064 21.5352 129.951 19.2314H132.64C132.731 20.269 133.711 21.1214 135.148 21.1214C136.585 21.1214 137.449 20.4758 137.449 19.6001C137.449 17.1112 130.155 18.5392 130.155 13.885C130.155 11.8565 132.025 10.2201 134.988 10.2201C137.951 10.2201 139.706 11.7647 139.842 14.2987H137.243C137.152 13.1927 136.309 12.4321 134.895 12.4321C133.481 12.4321 132.775 13.0076 132.775 13.8616C132.775 16.419 139.863 14.991 140 19.5767C140 21.7203 138.154 23.3334 135.191 23.3334H135.192Z" fill="#030712"/>
<defs>
<linearGradient id="paint0_linear_56_3032" x1="11.7307" y1="6.22222" x2="4.945" y2="26.5362" gradientUnits="userSpaceOnUse">
<stop stop-color="#C852FF"/>
<stop offset="1" stop-color="#306AFF"/>
</linearGradient>
<linearGradient id="paint1_linear_56_3032" x1="11.7307" y1="6.22222" x2="4.945" y2="26.5362" gradientUnits="userSpaceOnUse">
<stop stop-color="#C852FF"/>
<stop offset="1" stop-color="#306AFF"/>
</linearGradient>
<linearGradient id="paint2_linear_56_3032" x1="11.7307" y1="6.22222" x2="4.945" y2="26.5362" gradientUnits="userSpaceOnUse">
<stop stop-color="#C852FF"/>
<stop offset="1" stop-color="#306AFF"/>
</linearGradient>
<linearGradient id="paint3_linear_56_3032" x1="11.7307" y1="6.22222" x2="4.945" y2="26.5362" gradientUnits="userSpaceOnUse">
<stop stop-color="#C852FF"/>
<stop offset="1" stop-color="#306AFF"/>
</linearGradient>
<linearGradient id="paint4_linear_56_3032" x1="11.7307" y1="6.22222" x2="4.945" y2="26.5362" gradientUnits="userSpaceOnUse">
<stop stop-color="#C852FF"/>
<stop offset="1" stop-color="#306AFF"/>
</linearGradient>
</defs>
</svg>
