<svg width="24" height="24" viewBox="0 0 24 24" fill="none" xmlns="http://www.w3.org/2000/svg">
<g id="vuesax/bold/book">
<path id="Vector" d="M20.1786 18.2237L20.1786 18.2237L20.176 18.224L19.866 18.264L19.8635 18.2644C18.1692 18.4917 15.8162 19.1865 13.9274 19.9785C13.616 20.1072 13.25 19.873 13.25 19.5099V5.59993C13.25 5.42221 13.3517 5.24613 13.5288 5.14923C15.3004 4.19101 17.9898 3.33806 19.7916 3.17993H19.83C20.7539 3.17993 21.5 3.92607 21.5 4.84993V16.7399C21.5 17.4552 20.9004 18.1344 20.1786 18.2237Z" fill="#324EFD" stroke="#324EFD"/>
<path id="Vector_2" d="M3.81138 18.2237L3.81398 18.224L4.12398 18.264L4.12647 18.2644C5.82081 18.4917 8.17371 19.1865 10.0625 19.9785M3.81138 18.2237L4.22999 3.17993H4.20843M3.81138 18.2237C3.0896 18.1344 2.48999 17.4552 2.48999 16.7399V4.84993C2.48999 3.92607 3.23613 3.17993 4.15999 3.17993H4.20843M3.81138 18.2237L4.20843 3.17993M10.0625 19.9785C10.0628 19.9786 10.0631 19.9787 10.0634 19.9788L9.87004 20.4398L10.0618 19.9782C10.062 19.9783 10.0623 19.9784 10.0625 19.9785ZM10.0625 19.9785C10.374 20.1073 10.74 19.873 10.74 19.5099V5.59993C10.74 5.40583 10.6425 5.24295 10.4712 5.14921M10.4712 5.14921C10.4715 5.14938 10.4718 5.14954 10.4721 5.1497L10.71 4.70994L10.4706 5.14888C10.4708 5.14899 10.471 5.1491 10.4712 5.14921ZM10.4712 5.14921C8.69955 4.191 6.01015 3.33806 4.20843 3.17993M7.24999 7.23993H4.99999C4.31385 7.23993 3.74999 7.80379 3.74999 8.48993C3.74999 9.19041 4.3182 9.73993 4.99999 9.73993H7.24999C7.93178 9.73993 8.49999 9.19041 8.49999 8.48993C8.49999 7.80379 7.93613 7.23993 7.24999 7.23993ZM4.99999 12.7399H7.99999C8.68178 12.7399 9.24999 12.1904 9.24999 11.4899C9.24999 10.8038 8.68613 10.2399 7.99999 10.2399H4.99999C4.31385 10.2399 3.74999 10.8038 3.74999 11.4899C3.74999 12.1904 4.3182 12.7399 4.99999 12.7399Z" fill="#324EFD" stroke="#324EFD"/>
</g>
</svg>
