<svg width="24" height="24" viewBox="0 0 24 24" fill="none" xmlns="http://www.w3.org/2000/svg">
<g id="vuesax/bold/folder-favorite">
<g id="folder-favorite">
<path id="Vector" d="M11.1294 3.69926L11.1305 3.70069L12.5305 5.56069L12.5312 5.56155C12.5407 5.5741 12.5503 5.58694 12.5601 5.60001C12.6842 5.76525 12.8366 5.96828 13.0611 6.08631C13.309 6.21667 13.5907 6.22 13.86 6.22H16.65C18.2849 6.22 19.7321 7.0321 20.6077 8.27908C20.6822 8.38515 20.674 8.47947 20.6198 8.56458C20.5578 8.66184 20.4265 8.75 20.2482 8.75H3C2.72386 8.75 2.5 8.52614 2.5 8.25V6.42C2.5 4.25614 4.25614 2.5 6.42 2.5H8.74C9.50213 2.5 9.9401 2.62406 10.2501 2.80535C10.5679 2.99123 10.8066 3.26718 11.1294 3.69926Z" fill="#324EFD" stroke="#324EFD"/>
<path id="Vector_2" d="M21.9834 11.7466C21.9815 11.1957 21.5343 10.75 20.9834 10.75L3 10.75C2.44772 10.75 2 11.1977 2 11.75V16.65C2 19.6 4.4 22 7.35 22H16.65C19.6 22 22 19.6 22 16.65L21.9834 11.7466ZM14.54 16.97L12.39 18.85C12.28 18.95 12.14 19 12 19C11.86 19 11.72 18.95 11.61 18.85L9.46 16.97C8.78 16.37 8.69 15.35 9.26 14.64C9.83 13.92 10.86 13.79 11.6 14.34L12 14.64L12.4 14.34C13.14 13.79 14.17 13.92 14.74 14.64C15.31 15.35 15.22 16.37 14.54 16.97Z" fill="#324EFD"/>
</g>
</g>
</svg>
