<svg width="24" height="24" viewBox="0 0 24 24" fill="none" xmlns="http://www.w3.org/2000/svg">
<g id="vuesax/bold/home-2">
<g id="Group">
<path id="Vector" d="M13.9931 3.19955L13.9934 3.19974L19.7533 7.22968C19.7533 7.2297 19.7533 7.22972 19.7534 7.22974C20.2226 7.55821 20.6668 8.09677 20.9943 8.72395C21.3217 9.35117 21.51 10.0243 21.51 10.6001V17.3801C21.51 19.6539 19.6638 21.5001 17.39 21.5001H6.60999C4.33754 21.5001 2.48999 19.6453 2.48999 17.3701V10.4701C2.48999 9.93562 2.66038 9.29655 2.95857 8.69092C3.25662 8.08558 3.66106 7.55694 4.08751 7.22431L4.08761 7.22423L9.09624 3.3153C9.09645 3.31513 9.09667 3.31496 9.09689 3.31479C10.4337 2.2795 12.6028 2.22547 13.9931 3.19955ZM12 19.2501C12.6861 19.2501 13.25 18.6862 13.25 18.0001V15.0001C13.25 14.3139 12.6861 13.7501 12 13.7501C11.3138 13.7501 10.75 14.3139 10.75 15.0001V18.0001C10.75 18.6862 11.3138 19.2501 12 19.2501Z" fill="#324EFD" stroke="#324EFD"/>
</g>
</g>
</svg>
