<svg width="24" height="24" viewBox="0 0 24 24" fill="none" xmlns="http://www.w3.org/2000/svg">
<g id="ic/arrow-long-left">
<path id="Vector" d="M4.45571 10.8964L6.9255 8.42666L6.5726 8.07377L2.82304 11.8233C2.77622 11.8702 2.74993 11.9337 2.74993 12C2.74993 12.0662 2.77622 12.1298 2.82304 12.1767L6.57282 15.9264L6.57906 15.9327L6.58507 15.9391C6.60796 15.9637 6.63556 15.9834 6.66623 15.9971C6.69689 16.0107 6.72999 16.0181 6.76357 16.0187C6.79713 16.0193 6.83048 16.0131 6.86161 16.0005C6.89273 15.9879 6.92101 15.9692 6.94475 15.9455C6.96849 15.9217 6.98721 15.8935 6.99978 15.8623C7.01235 15.8312 7.01853 15.7979 7.01794 15.7643C7.01734 15.7307 7.01 15.6976 6.99633 15.667C6.98267 15.6363 6.96297 15.6087 6.93841 15.5858L6.93195 15.5798L6.92571 15.5736L4.45571 13.1035L3.60216 12.25H4.80927H20.9993C21.0656 12.25 21.1292 12.2237 21.176 12.1768C21.2229 12.1299 21.2493 12.0663 21.2493 12C21.2493 11.9337 21.2229 11.8701 21.176 11.8232C21.1292 11.7763 21.0656 11.75 20.9993 11.75H4.80927H3.60216L4.45571 10.8964ZM6.92571 8.42644C6.97239 8.37959 6.99861 8.31614 6.99861 8.25C6.99861 8.18384 6.97239 8.12039 6.9257 8.07353C6.87885 8.02687 6.81541 8.00066 6.74927 8.00066C6.68312 8.00066 6.61967 8.02687 6.57282 8.07355L6.92571 8.42644Z" fill="#030712" stroke="#1E293B"/>
</g>
</svg>
