<svg width="24" height="24" viewBox="0 0 24 24" fill="none" xmlns="http://www.w3.org/2000/svg">
<path d="M19 9C19 10.45 18.57 11.78 17.83 12.89C16.75 14.49 15.04 15.62 13.05 15.91C12.71 15.97 12.36 16 12 16C11.64 16 11.29 15.97 10.95 15.91C8.96 15.62 7.25 14.49 6.17 12.89C5.43 11.78 5 10.45 5 9C5 5.13 8.13 2 12 2C15.87 2 19 5.13 19 9Z" stroke="#324EFD" stroke-width="1.5" stroke-linecap="round" stroke-linejoin="round"/>
<path d="M21.25 18.4699L19.6 18.8599C19.23 18.9499 18.94 19.2299 18.86 19.5999L18.51 21.0699C18.32 21.8699 17.3 22.1099 16.77 21.4799L12 15.9999L7.22999 21.4899C6.69999 22.1199 5.67999 21.8799 5.48999 21.0799L5.13999 19.6099C5.04999 19.2399 4.75999 18.9499 4.39999 18.8699L2.74999 18.4799C1.98999 18.2999 1.71999 17.3499 2.26999 16.7999L6.16999 12.8999C7.24999 14.4999 8.95999 15.6299 10.95 15.9199C11.29 15.9799 11.64 16.0099 12 16.0099C12.36 16.0099 12.71 15.9799 13.05 15.9199C15.04 15.6299 16.75 14.4999 17.83 12.8999L21.73 16.7999C22.28 17.3399 22.01 18.2899 21.25 18.4699Z" stroke="#324EFD" stroke-width="1.5" stroke-linecap="round" stroke-linejoin="round"/>
<path d="M12.58 5.98L13.17 7.15999C13.25 7.31999 13.46 7.48 13.65 7.51L14.72 7.68999C15.4 7.79999 15.56 8.3 15.07 8.79L14.24 9.61998C14.1 9.75998 14.02 10.03 14.07 10.23L14.31 11.26C14.5 12.07 14.07 12.39 13.35 11.96L12.35 11.37C12.17 11.26 11.87 11.26 11.69 11.37L10.69 11.96C9.97 12.38 9.54 12.07 9.73 11.26L9.97 10.23C10.01 10.04 9.94 9.75998 9.8 9.61998L8.97 8.79C8.48 8.3 8.64 7.80999 9.32 7.68999L10.39 7.51C10.57 7.48 10.78 7.31999 10.86 7.15999L11.45 5.98C11.74 5.34 12.26 5.34 12.58 5.98Z" stroke="#324EFD" stroke-width="1.5" stroke-linecap="round" stroke-linejoin="round"/>
</svg>
