<svg width="20" height="20" viewBox="0 0 20 20" fill="none" xmlns="http://www.w3.org/2000/svg">
<g id="vuesax/bold/heart">
<g id="Group">
<path id="Vector" d="M9.59967 4.74111L10 5.27624L10.4004 4.74111C11.1521 3.73632 12.3566 3.08325 13.7 3.08325C15.9799 3.08325 17.8334 4.94039 17.8334 7.24159C17.8334 8.17887 17.6839 9.04367 17.4243 9.846L17.4233 9.84926C16.8007 11.8193 15.5239 13.41 14.1418 14.5978C12.7575 15.7875 11.2963 16.5482 10.3556 16.8682L10.3556 16.8682L10.3503 16.8701C10.2788 16.8953 10.1518 16.9166 10 16.9166C9.84827 16.9166 9.72127 16.8953 9.64976 16.8701L9.64978 16.8701L9.64441 16.8682C8.70378 16.5482 7.24252 15.7875 5.85821 14.5978C4.4761 13.41 3.19932 11.8193 2.57678 9.84926L2.57679 9.84926L2.57574 9.84601C2.31616 9.04367 2.16669 8.17887 2.16669 7.24159C2.16669 4.94039 4.02016 3.08325 6.30002 3.08325C7.64345 3.08325 8.84793 3.73632 9.59967 4.74111Z" fill="#DC362E" stroke="#DC362E"/>
</g>
</g>
</svg>
