<svg width="12" height="12" viewBox="0 0 12 12" fill="none" xmlns="http://www.w3.org/2000/svg">
<path opacity="0.4" d="M6.00006 8.67501C6.45017 8.67501 6.81506 8.31013 6.81506 7.86001C6.81506 7.4099 6.45017 7.04501 6.00006 7.04501C5.54995 7.04501 5.18506 7.4099 5.18506 7.86001C5.18506 8.31013 5.54995 8.67501 6.00006 8.67501Z" fill="#030712"/>
<path d="M8.325 4.72H3.675C1.625 4.72 1 5.345 1 7.395V8.325C1 10.375 1.625 11 3.675 11H8.325C10.375 11 11 10.375 11 8.325V7.395C11 5.345 10.375 4.72 8.325 4.72ZM6 9.37C5.165 9.37 4.49 8.69 4.49 7.86C4.49 7.03 5.165 6.35 6 6.35C6.835 6.35 7.51 7.03 7.51 7.86C7.51 8.69 6.835 9.37 6 9.37Z" fill="#030712"/>
<path opacity="0.4" d="M3.56011 4.725V4.14C3.56011 2.675 3.97511 1.7 6.00011 1.7C8.02511 1.7 8.44011 2.675 8.44011 4.14V4.725C8.69511 4.73 8.92511 4.74 9.14011 4.77V4.14C9.14011 2.79 8.81511 1 6.00011 1C3.18511 1 2.86011 2.79 2.86011 4.14V4.765C3.07011 4.74 3.30511 4.725 3.56011 4.725Z" fill="#030712"/>
</svg>
