<svg width="24" height="24" viewBox="0 0 24 24" fill="none" xmlns="http://www.w3.org/2000/svg">
<path opacity="0.4" d="M14.9962 16.8063L14.9962 7.20635C14.9962 4.00635 12.9962 2.00635 9.79622 2.00635L7.20621 2.00635C3.99621 2.00635 1.99622 4.00635 1.99622 7.20635L1.99622 16.7963C1.99622 19.9963 3.99622 21.9963 7.19622 21.9963L9.79622 21.9963C12.9962 22.0063 14.9962 20.0063 14.9962 16.8063Z" fill="#DC362E"/>
<path d="M18.4263 15.8862L21.7763 12.5362C22.0663 12.2462 22.0663 11.7662 21.7763 11.4762L18.4263 8.12619C18.1363 7.83619 17.6563 7.83619 17.3663 8.12619C17.0763 8.41619 17.0763 8.89619 17.3663 9.18619L19.4363 11.2562L8.74627 11.2562C8.33627 11.2562 7.99627 11.5962 7.99627 12.0062C7.99627 12.4162 8.33627 12.7562 8.74627 12.7562L19.4363 12.7562L17.3663 14.8262C17.2163 14.9762 17.1463 15.1662 17.1463 15.3562C17.1463 15.5462 17.2163 15.7362 17.3663 15.8862C17.6563 16.1862 18.1263 16.1862 18.4263 15.8862Z" fill="#DC362E"/>
</svg>
