<svg width="16" height="16" viewBox="0 0 16 16" fill="none" xmlns="http://www.w3.org/2000/svg">
<path opacity="0.4" d="M5.33325 8.13333H9.99992" stroke="#030712" stroke-miterlimit="10" stroke-linecap="round" stroke-linejoin="round"/>
<path opacity="0.4" d="M5.33325 10.8H8.25325" stroke="#030712" stroke-miterlimit="10" stroke-linecap="round" stroke-linejoin="round"/>
<path d="M6.66659 4.00001H9.33325C10.6666 4.00001 10.6666 3.33334 10.6666 2.66668C10.6666 1.33334 9.99992 1.33334 9.33325 1.33334H6.66659C5.99992 1.33334 5.33325 1.33334 5.33325 2.66668C5.33325 4.00001 5.99992 4.00001 6.66659 4.00001Z" stroke="#4B5563" stroke-miterlimit="10" stroke-linecap="round" stroke-linejoin="round"/>
<path d="M10.6667 2.67999C12.8867 2.79999 14 3.61999 14 6.66666V10.6667C14 13.3333 13.3333 14.6667 10 14.6667H6C2.66667 14.6667 2 13.3333 2 10.6667V6.66666C2 3.62666 3.11333 2.79999 5.33333 2.67999" stroke="#4B5563" stroke-miterlimit="10" stroke-linecap="round" stroke-linejoin="round"/>
</svg>
