<svg width="25" height="24" viewBox="0 0 25 24" fill="none" xmlns="http://www.w3.org/2000/svg">
<g id="ic/arrow-long-right">
<path id="Vector" fill-rule="evenodd" clip-rule="evenodd" d="M17.22 7.71995C17.3606 7.5795 17.5512 7.50061 17.75 7.50061C17.9488 7.50061 18.1394 7.5795 18.28 7.71995L22.03 11.47C22.1705 11.6106 22.2493 11.8012 22.2493 12C22.2493 12.1987 22.1705 12.3893 22.03 12.53L18.28 16.28C18.2113 16.3536 18.1285 16.4127 18.0365 16.4537C17.9445 16.4947 17.8452 16.5168 17.7445 16.5185C17.6438 16.5203 17.5438 16.5018 17.4504 16.4641C17.357 16.4264 17.2722 16.3702 17.201 16.299C17.1297 16.2278 17.0736 16.1429 17.0359 16.0495C16.9982 15.9562 16.9796 15.8561 16.9814 15.7554C16.9832 15.6547 17.0052 15.5554 17.0462 15.4634C17.0872 15.3714 17.1463 15.2886 17.22 15.22L19.69 12.75H3.5C3.30109 12.75 3.11032 12.6709 2.96967 12.5303C2.82902 12.3896 2.75 12.1989 2.75 12C2.75 11.801 2.82902 11.6103 2.96967 11.4696C3.11032 11.329 3.30109 11.25 3.5 11.25H19.69L17.22 8.77995C17.0795 8.63932 17.0007 8.4487 17.0007 8.24995C17.0007 8.0512 17.0795 7.86058 17.22 7.71995Z" fill="#324EFD"/>
</g>
</svg>
