<svg width="16" height="16" viewBox="0 0 16 16" fill="none" xmlns="http://www.w3.org/2000/svg">
<path d="M14.6666 10V6.00001C14.6666 2.66668 13.3333 1.33334 9.99992 1.33334H5.99992C2.66659 1.33334 1.33325 2.66668 1.33325 6.00001V10C1.33325 13.3333 2.66659 14.6667 5.99992 14.6667H9.99992C13.3333 14.6667 14.6666 13.3333 14.6666 10Z" stroke="#4B5563" stroke-linecap="round" stroke-linejoin="round"/>
<path d="M1.67993 4.73999H14.3199" stroke="#4B5563" stroke-linecap="round" stroke-linejoin="round"/>
<path d="M5.67993 1.40668V4.64668" stroke="#4B5563" stroke-linecap="round" stroke-linejoin="round"/>
<path d="M10.3201 1.40668V4.34668" stroke="#4B5563" stroke-linecap="round" stroke-linejoin="round"/>
<path opacity="0.4" d="M6.5 9.63333V8.83333C6.5 7.80666 7.22667 7.38666 8.11333 7.9L8.80667 8.3L9.5 8.7C10.3867 9.21333 10.3867 10.0533 9.5 10.5667L8.80667 10.9667L8.11333 11.3667C7.22667 11.88 6.5 11.46 6.5 10.4333V9.63333V9.63333Z" stroke="#4B5563" stroke-miterlimit="10" stroke-linecap="round" stroke-linejoin="round"/>
</svg>
