<svg width="24" height="24" viewBox="0 0 24 24" fill="none" xmlns="http://www.w3.org/2000/svg">
<g id="vuesax/bold/element-3">
<g id="Group">
<path id="Vector" d="M19.7731 9.99001V9.99H19.77H15.73C14.9723 9.99 14.5694 9.85211 14.3501 9.65808C14.1466 9.47796 14 9.15669 14 8.51V3.98C14 3.33935 14.1461 3.01693 14.3509 2.83503C14.5707 2.63973 14.974 2.5 15.73 2.5H19.77C20.526 2.5 20.9293 2.63973 21.1491 2.83503C21.3539 3.01693 21.5 3.33935 21.5 3.98V8.52C21.5 9.16102 21.3537 9.48268 21.1499 9.66308C20.9312 9.85664 20.5288 9.99476 19.7731 9.99001Z" fill="#324EFD" stroke="#324EFD"/>
<path id="Vector_2" d="M21.5 15.73V19.77C21.5 20.5149 21.3471 20.9083 21.1277 21.1277C20.9083 21.3471 20.5149 21.5 19.77 21.5H15.73C14.9851 21.5 14.5917 21.3471 14.3723 21.1277C14.1529 20.9083 14 20.5149 14 19.77V15.73C14 14.9851 14.1529 14.5917 14.3723 14.3723C14.5917 14.1529 14.9851 14 15.73 14H19.77C20.5149 14 20.9083 14.1529 21.1277 14.3723C21.3471 14.5917 21.5 14.9851 21.5 15.73Z" fill="#324EFD" stroke="#324EFD"/>
<path id="Vector_3" d="M10.5 8.52V3.98C10.5 2.57 9.86 2 8.27 2H4.23C2.64 2 2 2.57 2 3.98V8.51C2 9.93 2.64 10.49 4.23 10.49H8.27C9.86 10.5 10.5 9.93 10.5 8.52Z" fill="#324EFD"/>
<path id="Vector_4" d="M10.5 19.77V15.73C10.5 14.14 9.86 13.5 8.27 13.5H4.23C2.64 13.5 2 14.14 2 15.73V19.77C2 21.36 2.64 22 4.23 22H8.27C9.86 22 10.5 21.36 10.5 19.77Z" fill="#324EFD"/>
</g>
</g>
</svg>
